# xmcd
#
# Track frame offsets:
#	150
#	15677
#	31907
#	44051
#	61391
#	76050
#	97737
#	115107
#	130841
#	143011
#	166077
#	179316
#	194388
#	214573
#	227272
#	247162
#	266684
#	281716
#	300988
#
# Disc length: 4179 seconds
#
# Revision: 0
# Processed by: cddbd v1.4PL0 Copyright (c) Steve Scherf et al.
# Submitted via: EasyCDDAExtractor 4.5.0.2
#
DISCID=f7105113
DTITLE=The Mavericks - S/t and From Hell To Paradise
DYEAR=1993
DGENRE=Country
TTITLE0=Mr. Jones
TTITLE1=The End Of The Line
TTITLE2=Excuse Me
TTITLE3=This Broken Heart
TTITLE4=I Got You
TTITLE5=From Hell To Paradise
TTITLE6=A Better Way
TTITLE7=Forever Blue
TTITLE8=Hey Good Lookin'
TTITLE9=Children
TTITLE10=You'll Never Know
TTITLE11=Tomorrow Never Comes
TTITLE12=The Lonely Waltz
TTITLE13=Watch Over Me
TTITLE14=Another Lonely Life
TTITLE15=I Don't care
TTITLE16=Keep Movin' On
TTITLE17=I'll Give You Back
TTITLE18=Strength To Say Goodbye
EXTD=
EXTT0=
EXTT1=
EXTT2=
EXTT3=
EXTT4=
EXTT5=
EXTT6=
EXTT7=
EXTT8=
EXTT9=
EXTT10=
EXTT11=
EXTT12=
EXTT13=
EXTT14=
EXTT15=
EXTT16=
EXTT17=
EXTT18=
PLAYORDER=
